<?xml version="1.0" encoding="UTF-8" standalone="no"?>
<!DOCTYPE svg PUBLIC "-//W3C//DTD SVG 1.1//EN" "http://www.w3.org/Graphics/SVG/1.1/DTD/svg11.dtd">
<svg width="100%" height="100%" viewBox="0 0 960 960" version="1.1" xmlns="http://www.w3.org/2000/svg" xmlns:xlink="http://www.w3.org/1999/xlink" xml:space="preserve" style="fill-rule:evenodd;clip-rule:evenodd;stroke-linejoin:round;stroke-miterlimit:2;">
    <g id="Artboard1" transform="matrix(0.213333,0,0,0.213333,0,0)">
        <rect x="0" y="0" width="4500" height="4500" style="fill:none;"/>
    </g>
    <g transform="matrix(0.213333,0,0,0.213333,0,0)">
        <g>
            <path id="monogram-bg" d="M4500,450C4500,201.635 4298.38,0 4050,0L450.001,0C201.636,0 0.001,201.635 0.001,450L0.001,4050C0.001,4298.38 201.636,4500 450.001,4500L4050,4500C4298.38,4500 4500,4298.38 4500,4050L4500,450Z" style="fill:rgb(255,196,0);"/>
            <g>
                <g>
                    <g>
                        <clipPath id="_clip1">
                            <path d="M4500,450C4500,201.635 4298.38,0 4050,0L450.001,0C201.636,0 0.001,201.635 0.001,450L0.001,4050C0.001,4298.38 201.636,4500 450.001,4500L4050,4500C4298.38,4500 4500,4298.38 4500,4050L4500,450Z"/>
                        </clipPath>
                        <g clip-path="url(#_clip1)">
                            <g id="Layer1">
                                <g>
                                    <path d="M849.303,1972.99L656.909,1855.47L656.909,1552.12L1378.42,1552.12L1601.68,1669.46L1601.68,1972.99L849.303,1972.99Z" style="fill:rgb(46,30,18);"/>
                                </g>
                                <g>
                                    <path d="M1765.21,1158.05L1794.19,1141.32L2289.34,1140.65L2361.48,1182.31L2361.48,1404.49L2337.43,1418.38L2305.95,1418.38L2296.39,2326.81L2350.39,2479L2350.39,2728.94L2302.3,2840.02L2182.05,2947.55L2074.84,2999.12L2061.79,3006.65L1725.09,3006.65L1532.68,2895.57L1452.47,2830.8L1412.43,2715.05L1412.43,2631.74L1436.48,2617.86L1676.98,2617.86L1749.13,2659.52L1753.85,2681.09L1773.18,2692.25L1981.05,2692.25L2013.68,2645.63L2013.68,2562.32L1942.39,2354.53L1958.58,1703.12L1903.6,1411.4L1855.5,1411.4L1759.29,1355.86L1765.21,1158.05Z" style="fill:rgb(46,30,18);"/>
                                </g>
                                <g>
                                    <path d="M2954.52,1711.9L3174.36,1584.97L3227.55,1693.13L2651.14,2025.92L2647.51,2333.49L2671.57,2347.38L2767.78,2347.38L2993.99,2223.86L3422.81,2223.86L3547.15,2341.74L3739.56,2341.74L3763.61,2317.84L3763.61,2008.48L3739.56,1994.59L3378.79,1994.59L3258.54,2064.03L3198.76,1946.19L3763.61,1633.57L3763.61,1369.74L3739.56,1355.86L3643.36,1355.86L3595.25,1383.63L2825.63,1383.63L2777.54,1355.86L2657.28,1355.86L2633.22,1369.74L2633.22,1675.23L2699.43,1713.67L2954.52,1711.9Z" style="fill:rgb(46,30,18);"/>
                                </g>
                                <g>
                                    <path d="M2664.43,2721.63L3056.04,2721.63L3004.99,3117.37L2713.52,3480.5L2514.09,3631.06L2452.73,3631.06L2176.6,3471.64L2176.6,3400.8L2391.36,3294.52L2602.29,3079.72L2664.43,2721.63Z" style="fill:rgb(46,30,18);"/>
                                </g>
                            </g>
                        </g>
                    </g>
                </g>
            </g>
        </g>
    </g>
</svg>
