<?xml version="1.0" encoding="UTF-8" standalone="no"?>
<!DOCTYPE svg PUBLIC "-//W3C//DTD SVG 1.1//EN" "http://www.w3.org/Graphics/SVG/1.1/DTD/svg11.dtd">
<svg width="54px" height="54px" viewBox="0 0 3447 3447" version="1.1" xmlns="http://www.w3.org/2000/svg" xmlns:xlink="http://www.w3.org/1999/xlink" xml:space="preserve" style="fill-rule:evenodd;clip-rule:evenodd;stroke-linejoin:round;stroke-miterlimit:2;">
    <g transform="matrix(3.125,0,0,3.125,-308.12,-308.12)">
        <path d="M1201.4,208.879C1201.4,148.013 1151.99,98.599 1091.12,98.599L208.879,98.599C148.013,98.599 98.599,148.013 98.599,208.879L98.599,1091.12C98.599,1151.99 148.013,1201.4 208.879,1201.4L1091.12,1201.4C1151.99,1201.4 1201.4,1151.99 1201.4,1091.12L1201.4,208.879Z" style="fill:rgb(255,194,41);"/>
        <clipPath id="_clip1">
            <path d="M1201.4,208.879C1201.4,148.013 1151.99,98.599 1091.12,98.599L208.879,98.599C148.013,98.599 98.599,148.013 98.599,208.879L98.599,1091.12C98.599,1151.99 148.013,1201.4 208.879,1201.4L1091.12,1201.4C1151.99,1201.4 1201.4,1151.99 1201.4,1091.12L1201.4,208.879Z"/>
        </clipPath>
        <g clip-path="url(#_clip1)">
            <g id="Layer1" transform="matrix(0.32,0,0,0.32,-1693.12,23.4103)">
                <g transform="matrix(1.02087,0,0,1.02087,-75.784,38.3716)">
                    <path d="M6196.02,1672.67L6051.69,1584.51L6051.69,1356.94L6592.95,1356.94L6760.44,1444.97L6760.44,1672.67L6196.02,1672.67Z"/>
                </g>
                <g transform="matrix(1.02087,0,0,1.02087,-270.766,-3.97916)">
                    <path d="M7074.11,1102.8L7095.85,1090.25L7467.3,1089.75L7521.42,1121L7521.42,1287.67L7503.38,1298.09L7479.76,1298.09L7472.59,1979.58L7513.1,2093.75L7513.1,2281.25L7477.02,2364.58L7386.81,2445.24L7306.39,2483.93L7296.6,2489.58L7044.01,2489.58L6899.67,2406.25L6839.5,2357.66L6809.46,2270.83L6809.46,2208.33L6827.5,2197.92L7007.92,2197.92L7062.05,2229.17L7065.59,2245.35L7080.09,2253.72L7236.03,2253.72L7260.51,2218.75L7260.51,2156.25L7207.03,2000.37L7219.17,1511.7L7177.93,1292.86L7141.84,1292.86L7069.67,1251.19L7074.11,1102.8Z"/>
                </g>
                <g transform="matrix(1.02087,0,0,1.02087,-312.027,18.5079)">
                    <path d="M8006.72,1496.26L8171.64,1401.04L8211.54,1482.18L7779.13,1731.83L7776.41,1962.56L7794.46,1972.98L7866.63,1972.98L8036.33,1880.32L8358.02,1880.32L8451.3,1968.75L8595.64,1968.75L8613.68,1950.82L8613.68,1718.75L8595.64,1708.33L8325,1708.33L8234.79,1760.42L8189.94,1672.02L8613.68,1437.5L8613.68,1239.58L8595.64,1229.17L8523.47,1229.17L8487.38,1250L7910.03,1250L7873.95,1229.17L7783.74,1229.17L7765.69,1239.58L7765.69,1468.75L7815.36,1497.59L8006.72,1496.26Z"/>
                </g>
                <g transform="matrix(1.30231,0,0,1.30231,-2565.35,-918.297)">
                    <path d="M7836.06,2486.03L8066.35,2486.03L8036.33,2718.75L7864.93,2932.29L7747.65,3020.83L7711.57,3020.83L7549.19,2927.08L7549.19,2885.42L7675.48,2822.92L7799.52,2696.61L7836.06,2486.03Z"/>
                </g>
            </g>
        </g>
    </g>
</svg>
