<?xml version="1.0" encoding="UTF-8" standalone="no"?><!DOCTYPE svg PUBLIC "-//W3C//DTD SVG 1.1//EN" "http://www.w3.org/Graphics/SVG/1.1/DTD/svg11.dtd"><svg width="100%" height="100%" viewBox="0 0 4500 4500" version="1.1" xmlns="http://www.w3.org/2000/svg" xmlns:xlink="http://www.w3.org/1999/xlink" xml:space="preserve" xmlns:serif="http://www.serif.com/" style="fill-rule:evenodd;clip-rule:evenodd;stroke-linejoin:round;stroke-miterlimit:2;"><rect id="Artboard1" x="0" y="0" width="4500" height="4500" style="fill:none;"/><clipPath id="_clip1"><rect x="0" y="0" width="4500" height="4500"/></clipPath><g clip-path="url(#_clip1)"><g><path d="M4500,450c0,-248.365 -201.618,-450 -449.999,-450l-3600,0c-248.365,0 -450,201.635 -450,450l0,3600c0,248.381 201.635,449.999 450,449.999l3600,0c248.381,0 449.999,-201.618 449.999,-449.999l0,-3600Z" style="fill:#ffc229;"/><g><clipPath id="_clip2"><path d="M4500,450c0,-248.365 -201.618,-450 -449.999,-450l-3600,0c-248.365,0 -450,201.635 -450,450l0,3600c0,248.381 201.635,449.999 450,449.999l3600,0c248.381,0 449.999,-201.618 449.999,-449.999l0,-3600Z"/></clipPath><g clip-path="url(#_clip2)"><g id="Layer1"><g><path d="M849.303,1972.99l-192.394,-117.519l-0,-303.355l721.509,0l223.267,117.346l-0,303.528l-752.382,-0Z"/></g><g><path d="M1765.21,1158.05l28.98,-16.73l495.149,-0.666l72.143,41.657l0,222.174l-24.047,13.89l-31.486,-0l-9.558,908.438l54.001,152.19l-0,249.941l-48.096,111.08l-120.251,107.522l-107.201,51.574l-13.051,7.532l-336.707,-0l-192.407,-111.081l-80.208,-64.771l-40.044,-115.746l0,-83.314l24.048,-13.876l240.503,-0l72.156,41.657l4.719,21.568l19.329,11.157l207.87,0l32.633,-46.616l-0,-83.313l-71.29,-207.791l16.183,-651.405l-54.974,-291.718l-48.108,0l-96.204,-55.547l5.918,-197.806Z"/></g><g><path d="M2954.52,1711.9l219.842,-126.93l53.187,108.161l-576.41,332.788l-3.626,307.567l24.061,13.89l96.204,-0l226.213,-123.518l428.818,0l124.344,117.879l192.408,0l24.048,-23.901l-0,-309.353l-24.048,-13.89l-360.768,-0l-120.251,69.437l-59.786,-117.839l564.853,-312.619l-0,-263.831l-24.048,-13.877l-96.204,0l-48.109,27.767l-769.617,-0l-48.095,-27.767l-120.252,0l-24.061,13.877l0,305.487l66.211,38.445l255.086,-1.773Z"/></g><g><path d="M2664.43,2721.63l391.611,0l-51.049,395.743l-291.468,363.128l-199.436,150.563l-61.355,0l-276.129,-159.423l0,-70.843l214.758,-106.282l210.932,-214.792l62.136,-358.094Z"/></g></g></g></g></g></g></svg>