<?xml version="1.0" encoding="UTF-8" standalone="no"?><!DOCTYPE svg PUBLIC "-//W3C//DTD SVG 1.1//EN" "http://www.w3.org/Graphics/SVG/1.1/DTD/svg11.dtd"><svg width="100%" height="100%" viewBox="0 0 2132 533" version="1.1" xmlns="http://www.w3.org/2000/svg" xmlns:xlink="http://www.w3.org/1999/xlink" xml:space="preserve" style="fill-rule:evenodd;clip-rule:evenodd;stroke-linejoin:round;stroke-miterlimit:2;"><path d="M745.484,333.949c-8.306,3.213 -14.292,7.522 -20.996,9.696c-11.647,3.776 -21.633,1.492 -30.081,-4.822c-13.829,-10.337 -21.311,-31.282 -19.905,-55.547c-0.059,-3.26 0.01,-6.57 0.227,-9.909c7.975,4.43 17.302,6.721 25.8,7.364c12.174,0.92 24.448,-3.082 36.157,-8.166c18.566,-8.062 33.778,-21.611 40.297,-41.847c2.055,-12.076 4.919,-31.668 -0.498,-47.064c-4.923,-13.988 -13.739,-25.002 -27.327,-28.17c-6.914,-2.594 -15.799,-2.425 -25.059,-0.996c-7.252,1.119 -14.709,2.649 -20.96,4.922c-5.515,1.975 -11.054,5.524 -16.553,9.439c-7.503,5.342 -14.271,11.967 -19.304,17.226c-12.043,12.584 -21.47,28.196 -27.747,45.283c-6.115,16.645 -8.346,34.633 -8.907,51.37c0.07,2.1 0.184,4.181 0.343,6.245c-6.674,25.916 -24.624,53.781 -39.318,51.662c-15.545,-2.242 -36.739,-22.096 -46.453,-59.882c-2.091,-8.13 -4.321,-15.195 -6.592,-21.23c23.572,-13.253 46.065,-27.429 56.546,-43.011c10.691,-15.895 11.007,-32.822 -2.388,-49.464c-14.804,-17.989 -39.684,-21.667 -60.306,-6.746c0.035,-1.152 0.067,-2.272 0.096,-3.353c0.303,-11.258 0.341,-22.523 0.731,-33.778c0.515,-14.847 1.911,-50.016 2.36,-55.299c0.376,-4.406 -5.325,-6.683 -8.583,-8.051c-7.957,-3.362 -15.067,-4.98 -23.493,-6.703c-2.757,-0.574 -5.149,-0.877 -7.236,-0.877c-6.662,-0 -9.941,3.153 -10.724,10.65c-1.546,14.9 -2.74,42.83 -3.563,58.303c-0.608,11.429 -1.102,23.092 -1.376,34.534c-0.371,15.533 -0.539,46.326 -0.607,71.644c-0.04,0.709 -0.068,1.444 -0.085,2.206c-0.096,4.364 -1.456,52.128 -1.532,56.249c-0,-0 -0.123,4.656 -0.129,6.984c-0.011,4.05 -0.087,11.535 -0.132,19.603c-3.656,17.072 -13.615,34.595 -24.826,34.595c-14.555,0 -22.857,-12.895 -22.857,-71.817c0,-34.353 1.034,-49.326 1.536,-74.177c0.292,-14.316 0.866,-25.3 0.824,-27.817c-0.114,-7.633 -13.333,-11.486 -19.494,-12.916c-6.422,-1.504 -11.997,-2.036 -16.268,-1.723c-5.638,0.418 -9.596,5.44 -9.596,9.23l0,8.667c-7.643,-12.029 -19.954,-20.392 -28.15,-22.825c-22.064,-6.537 -44.941,-0.637 -62.42,23.546c-11.413,15.787 -20.653,33.266 -25.394,71.984c-1.378,11.193 -2.251,20.953 -1.901,31.45c0.378,11.319 1.421,25.371 4.167,36.462c2.604,10.517 6.953,21.593 12.31,30.082c25.666,40.681 75.493,31.92 100.521,-2.61c7.738,-10.682 8.918,-14.514 8.918,-14.514c3.644,32.62 29.915,44.022 44.951,44.022c13.438,-0 27.222,-5.073 38.427,-21.039c0.339,5.341 0.807,10.039 1.438,11.748c0.726,1.998 5.127,4.554 8.331,5.825c14.236,5.568 28.898,3.322 34.326,2.346c3.762,-0.692 6.741,-3.645 7.28,-11.405c0.547,-7.771 0.375,-16.782 -0.025,-26.409c12.066,25.03 29.717,39.211 52.211,39.211c22.013,0 44.078,-28.113 54.033,-56.127c7.373,23.415 21.035,41.737 37.987,51.232c16.409,9.19 36.048,12.914 54.345,4.201c16.028,-2.558 37.343,-19.407 60.035,-57.205c15.454,-25.718 30.469,-50.913 41.235,-69.092c7.517,6.965 15.965,14.43 24.37,22.439c19.599,18.576 26.01,36.243 21.739,52.981c-3.247,12.822 -15.547,25.999 -37.401,13.167c-6.38,-3.739 -9.106,-6.631 -15.496,-10.849c-3.435,-2.256 -8.698,-2.934 -11.861,-0.564c-8.166,6.171 -12.844,14.023 -15.527,23.744c-2.6,9.471 6.87,14.462 16.685,18.816c8.448,3.78 26.627,7.184 38.217,7.58c45.139,1.504 81.309,-21.802 106.483,-81.935c4.511,51.926 23.692,81.298 57.022,81.298c22.272,0 44.596,-28.777 54.38,-57.115c2.787,11.538 6.953,21.593 12.31,30.082c25.666,40.681 75.493,31.92 100.521,-2.61c7.738,-10.682 8.918,-14.514 8.918,-14.514c3.644,32.62 29.915,44.022 44.951,44.022c16.852,-0 34.248,-7.978 46.423,-35.418c1.441,2.976 3.007,5.826 4.688,8.52c25.687,40.681 75.504,31.92 100.522,-2.61c1.179,-1.629 2.213,-3.101 3.101,-4.428l0.741,21.427c0,-0 -14.274,13.093 -23.044,21.133c-38.603,35.387 -67.955,62.243 -70.106,93.495c-2.746,39.866 29.561,54.682 54.036,56.624c25.958,2.047 48.219,-12.279 61.877,-32.369c12.029,-17.656 19.901,-55.716 19.317,-93.274c-0.22,-15.057 -0.616,-34.176 -0.888,-54.673c13.533,-15.767 28.798,-35.658 42.884,-58.932c15.328,-25.383 31.742,-59.465 40.148,-85.987c-0,0 14.273,0.115 29.487,-0.877c4.876,-0.313 6.286,0.689 5.388,4.26c-1.096,4.302 -19.244,74.324 -2.684,120.966c11.34,31.92 36.901,42.195 52.072,42.195c17.73,-0 34.677,-13.397 43.803,-33.298c1.086,2.224 2.234,4.385 3.487,6.348c25.656,40.681 75.316,31.878 100.501,-2.61c5.701,-7.8 8.938,-14.514 8.938,-14.514c5.388,33.758 31.638,44.189 46.684,44.189c15.663,-0 30.521,-6.432 42.602,-34.959c0.491,12.572 1.284,22.847 2.548,26.083c0.762,1.984 5.21,4.459 8.437,5.67c14.336,5.304 28.954,2.788 34.363,1.713c3.748,-0.763 6.672,-3.77 7.069,-11.538c1.054,-20.382 0.407,-54.599 6.578,-80.056c10.379,-42.706 20.037,-59.267 24.632,-67.453c2.569,-4.605 5.471,-5.346 5.586,-0.501c0.198,9.857 0.679,38.738 4.698,77.539c2.967,28.558 6.903,45.442 9.931,50.778c8.635,15.265 19.317,15.996 28.015,15.996c5.523,0 17.093,-1.545 16.059,-11.245c-0.512,-4.751 0.375,-34.029 10.588,-76.088c6.682,-27.462 17.803,-52.281 21.822,-61.355c1.504,-3.341 2.172,-0.731 2.152,-0.209c-0.857,18.92 -2.746,80.797 4.969,114.649c10.453,45.849 40.65,50.976 51.196,50.976c22.47,-0 40.868,-17.093 47.07,-62.107c1.473,-10.838 -0.71,-19.202 -7.35,-19.202c-5.127,0 -7.476,5.315 -9.429,14.222c-6.735,31.042 -13.814,38.049 -22.93,38.049c-10.201,-0 -19.359,-15.381 -21.718,-46.121c-1.849,-24.193 -1.546,-68.695 0.814,-112.978c0.491,-9.095 -2.025,-18.095 -26.428,-26.96c-10.494,-3.822 -25.759,-9.429 -33.361,8.906c-21.478,51.833 -29.884,92.983 -31.836,109.7c-0.115,0.856 -1.18,1.044 -1.368,-0.992c-1.253,-13.376 -4.083,-37.705 -4.416,-88.816c-0.064,-9.972 -2.183,-18.461 -13.188,-25.405c-7.142,-4.5 -28.829,-12.488 -36.65,-2.996c-6.756,7.758 -14.588,28.641 -22.732,53.398c-6.62,20.11 -11.214,33.726 -11.214,33.726c0,0 0.073,-54.286 0.146,-74.876c0.042,-7.779 -5.294,-10.369 -6.902,-10.828c-7.215,-2.089 -21.467,-5.607 -27.524,-5.607c-7.466,-0 -9.293,4.176 -9.293,10.253c0,0.783 -1.169,71.473 -1.169,120.872l-0,6.986c-4.114,22.741 -17.501,53.565 -32.066,53.565c-14.567,-0 -21.447,-12.895 -21.447,-71.817c-0,-34.353 1.033,-49.327 1.545,-74.188c0.282,-14.305 0.867,-25.289 0.814,-27.806c-0.094,-7.633 -13.323,-11.486 -19.484,-12.916c-6.202,-1.431 -11.569,-1.984 -15.756,-1.765c-5.942,0.345 -10.149,4.24 -10.149,9.606c-0,2.882 0.041,8.333 0.041,8.333c-7.664,-12.029 -19.964,-20.393 -28.161,-22.825c-22.052,-6.537 -45.066,-0.731 -62.419,23.545c-13.804,19.296 -22.115,41.172 -25.384,72.569c-2.402,22.951 -1.608,46.246 2.631,65.939c-5.126,22.22 -14.66,31.325 -25.111,31.325c-15.172,-0 -26.157,-24.747 -24.894,-67.578c0.836,-28.151 6.474,-47.927 12.645,-76.506c2.621,-12.195 0.481,-18.565 -4.876,-24.694c-4.897,-5.597 -15.36,-8.479 -30.395,-4.949c-10.714,2.506 -26.031,5.231 -40.023,7.298c-0,0 0.825,-3.372 1.524,-9.335c3.634,-31.178 -30.249,-28.651 -41.045,-18.669c-6.464,5.931 -10.849,12.937 -12.52,25.561c-2.642,20.006 13.668,29.445 13.668,29.445c-5.346,24.517 -18.471,56.531 -32.024,79.691c-7.257,12.415 -12.812,21.582 -19.986,31.356c-0.01,-3.624 -0.031,-7.278 -0.041,-10.901c-0.178,-51.53 0.512,-92.085 0.825,-106.713c0.281,-14.316 0.866,-25.019 0.824,-27.504c-0.083,-5.607 -3.351,-7.716 -10.149,-10.389c-6.014,-2.37 -13.114,-4.01 -20.486,-4.584c-9.293,-0.72 -14.911,4.219 -14.754,10.055c0.011,1.097 0.011,7.863 0.011,7.863c-7.644,-12.029 -19.944,-20.393 -28.141,-22.825c-22.063,-6.537 -45.066,-0.731 -62.42,23.545c-13.793,19.296 -22.825,46.382 -25.394,72.34c-2.391,24.172 -1.942,44.711 1.316,62.023c-3.498,17.343 -13.606,35.47 -25.008,35.47c-14.555,-0 -22.857,-12.895 -22.857,-71.817c0,-34.353 1.034,-49.327 1.536,-74.177c0.292,-14.316 0.866,-25.3 0.824,-27.817c-0.114,-7.633 -13.333,-11.486 -19.494,-12.916c-6.422,-1.504 -11.997,-2.036 -16.268,-1.723c-5.638,0.418 -9.596,5.44 -9.596,9.23l0,8.667c-7.643,-12.029 -19.954,-20.393 -28.15,-22.825c-22.064,-6.537 -44.941,-0.637 -62.42,23.545c-11.413,15.788 -20.654,33.267 -25.394,71.985c-1.378,11.193 -1.974,21.666 -1.901,31.45c-4.531,27.827 -24.621,59.882 -41.056,59.882c-9.617,0 -18.774,-18.648 -18.774,-58.399c-0,-52.929 3.279,-128.317 3.822,-135.564c-0,0 20.779,-0.376 24.778,-0.386c10.379,-0.125 19.745,0.125 33.528,-0.595c6.912,-0.345 13.584,-25.164 6.442,-28.255c-3.227,-1.368 -26.104,-2.6 -35.167,-2.788c-7.623,-0.167 -28.85,-1.754 -28.85,-1.754c-0,-0 1.911,-50.016 2.359,-55.299c0.376,-4.406 -5.325,-6.683 -8.582,-8.05c-7.957,-3.363 -15.068,-4.981 -23.494,-6.704c-2.757,-0.574 -5.148,-0.877 -7.236,-0.877c-6.662,-0 -9.941,3.153 -10.724,10.65c-1.545,14.9 -2.37,58.599 -2.37,58.599c-8.531,-0 -37.715,-1.692 -46.256,-1.692c-7.957,0 -16.519,34.165 -5.545,34.583c12.635,0.49 34.656,0.908 49.233,1.347c-0,-0 -0.648,76.62 -0.648,100.27c0,2.517 0.021,4.95 0.042,7.288c-8.04,41.861 -36.327,64.467 -36.327,64.467c6.067,-27.681 -6.317,-48.491 -28.693,-66.085c-8.228,-6.495 -24.496,-18.764 -42.675,-32.212c0,-0 10.536,-10.39 19.891,-31.273c6.61,-14.816 6.902,-31.742 -9.355,-35.491c-26.835,-6.15 -48.972,13.553 -55.591,34.614c-5.106,16.289 -2.381,28.412 7.633,40.973c0.73,0.929 1.524,1.838 2.349,2.788c-6.056,11.694 -14.389,27.409 -21.447,39.615c-15.803,27.347 -34.285,53.502 -46.378,63.858Zm647.375,84.747c-0.282,41.025 -6.734,76.996 -20.58,87.459c-5.847,4.406 -12.3,6.515 -18.336,6.515c-14.2,0 -26.083,-11.736 -22.24,-32.765c4.834,-26.48 27.712,-53.545 61.219,-86.592c0,-0 0.063,7.549 -0.063,25.383Zm-1190.64,-365.692c-4.335,-1.041 -8.617,-2.082 -12.831,-3.115c-24.203,-5.931 -45.767,-12.531 -63.333,-15.32l-37.472,-6.246c-10.115,-0.996 -21.059,-2.068 -31.843,-1.177c-6.844,0.566 -13.5,1.644 -19.655,3.997c-3.93,1.926 -8.684,0.299 -10.611,-3.631c-1.926,-3.93 -0.299,-8.684 3.631,-10.61c6.991,-4.251 14.87,-7.045 23.072,-9.375c11.69,-3.322 23.907,-4.914 35.254,-6.16l41.33,-1.367c16.222,0.836 36.028,3.068 57.729,7.152c14.082,2.649 28.933,6.129 44.111,9.928c21.332,5.34 43.355,11.138 64.716,17.037c40.387,11.154 78.047,22.313 106.286,22.729c5.338,-0.357 9.963,3.686 10.321,9.024c0.357,5.338 -3.686,9.963 -9.024,10.32c-29.74,4.453 -71.597,2.092 -115.611,-5.189c-12.78,-2.114 -25.716,-4.588 -38.544,-7.26c0.363,44.255 0.1,97.967 0.067,119.043c-0.042,28.599 0.294,49.122 -0.802,80.728c-0.399,11.518 -1.593,22.628 -4.026,33.171l0.233,9.809c-1.351,52.432 -28.534,99.946 -68.275,125.711c-41.848,27.13 -95.752,31.171 -140.442,-0.601c-39.91,-25.623 -45.28,-67.369 -24.911,-108.226c20.839,-41.799 69.337,-81.998 125.369,-97.9c2.82,-0.94 5.873,0.588 6.813,3.408c0.939,2.821 -0.588,5.874 -3.409,6.813c-49.433,18.978 -89.611,59.02 -106.266,98.077c-12.283,28.805 -10.796,57.458 17.074,74.238c34.944,18.851 71.879,9.618 101.017,-11.716c15.033,-11.006 28.209,-25.545 37.367,-42.605c-0.644,-5.086 3.597,-13.993 6.454,-26.015c3.529,-14.816 5.492,-29.811 5.492,-77.309c0,-35.084 0.73,-173.638 0.73,-192.381c-0,-0.787 -0.004,-2.696 -0.011,-4.982Zm184.824,212.091c-1.295,23.827 -5.931,43.74 -13.396,58.18c-7.007,13.606 -17.553,22.377 -27.744,22.377c-9.429,-0 -18.534,-7.529 -24.193,-25.707c-8.489,-27.284 -5.587,-64.457 -2.078,-84.546c5.242,-29.8 18.356,-50.934 38.843,-48.94c21.029,2.047 31.262,29.09 28.568,78.636Zm1000.46,0.162c-1.189,22.512 -7.047,45.108 -13.407,57.846c-6.797,13.689 -17.478,22.491 -27.743,22.491c-9.532,0 -18.721,-7.57 -24.203,-25.822c-7.769,-25.926 -5.91,-59.465 -2.068,-80.609c5.002,-27.43 17.104,-52.876 38.843,-52.876c21.123,-0 31.555,23.191 28.578,78.97Zm360.121,0.261c-1.149,24.684 -6.599,44.001 -13.386,57.585c-6.819,13.679 -17.427,22.46 -27.681,22.46c-9.501,0 -18.711,-7.549 -24.266,-25.791c-6.317,-20.653 -6.61,-55.131 -2.067,-83.971c4.594,-29.341 17.489,-51.508 38.821,-49.514c21.04,1.973 30.897,29.09 28.579,79.231Zm-565.642,-0.595c-1.295,23.827 -5.931,43.739 -13.396,58.18c-7.007,13.606 -17.553,22.377 -27.744,22.377c-9.429,-0 -18.534,-7.529 -24.193,-25.708c-8.49,-27.284 -5.587,-64.456 -2.078,-84.545c5.242,-29.801 18.356,-50.934 38.843,-48.94c21.029,2.046 31.262,29.09 28.568,78.636Zm-500.55,-28.789l0.671,0.89c8.68,13.561 17.86,21.368 31.112,20.078c5.12,-0.498 10.488,-1.385 14.996,-4.069c9.357,-5.571 13.943,-16.531 14.063,-27.965c1.304,-8.393 1.345,-21.455 -0.438,-32.629c-0.826,-5.176 1.023,-10.735 -3.036,-13.535c-2.167,-1.206 -4.967,-2.179 -8.027,-1.892c-5.896,0.552 -11.759,3.795 -16.545,6.493c-3.878,2.216 -7.367,6.075 -10.818,9.914c-4.043,4.497 -7.363,9.455 -9.969,13.442c-5.607,8.633 -8.799,18.691 -11.916,28.946l-0.093,0.327Zm-150.509,6.867c13.551,-11.135 26.202,-22.528 35.103,-33.322c7.13,-8.647 12.02,-16.602 5.037,-25.08c-7.581,-9.561 -21.721,-6.921 -31.047,5.828c-4.357,5.956 -7.358,13.879 -9.605,23.701c-0.312,8.528 -0.613,17.466 -0.872,26.654c0.458,0.698 0.92,1.438 1.384,2.219Z"/></svg>