<svg id="Layer_1" data-name="Layer 1" xmlns="http://www.w3.org/2000/svg" viewBox="0 0 919.4 329.63"><defs><style>.cls-1{fill:#00b8f1;}.cls-2{fill:none;stroke:#00b8f1;}.cls-3{fill:#00b9f1;}</style></defs><title>PP_Numbers_01</title><path class="cls-1" d="M810.3,264.44v-42H817c15.34,0,22.66,8.62,22.66,21s-7.33,21-22.66,21H810.3Zm-5.5,5H817.4c17.4,0,28.08-10.22,28.08-25.94s-10.76-25.95-28.08-25.95H804.81v51.89Zm-38.43,0h30v-4.88h-24.5v-47h-5.49v51.89Zm-37.46-4.35c-12.06,0-20.91-9.23-20.91-21.59s8.85-21.6,20.91-21.6,21,9.23,21,21.6-8.85,21.59-21,21.59m0,5c14.8,0,26.71-10.91,26.71-26.55s-11.91-26.56-26.71-26.56-26.63,10.91-26.63,26.56S714.19,270,728.92,270m-49.51,0c9.31,0,16.1-5.19,16.1-13.74,0-7.78-4.43-12.06-13-15.87l-4.12-1.91c-5.8-2.67-8.24-4.73-8.24-9.31,0-4.43,3.13-7.4,8.24-7.4,4.88,0,7.63,2.44,9.62,5.65l4.43-2.75c-2.75-4.58-7.1-7.78-14-7.78-7.78,0-13.66,5-13.66,12.44,0,7.25,4,10.84,11.45,14.19l4.12,1.91c6.49,2.9,9.77,5.57,9.77,10.84,0,5.49-4.73,8.85-10.76,8.85-7.33,0-10.91-3.74-13.35-8.09l-4.58,2.44c2.75,5.5,8.16,10.53,18.08,10.53m-58.6,0c9.31,0,16.1-5.19,16.1-13.74,0-7.78-4.43-12.06-13-15.87l-4.12-1.91c-5.8-2.67-8.24-4.73-8.24-9.31,0-4.43,3.13-7.4,8.24-7.4,4.88,0,7.63,2.44,9.61,5.65l4.43-2.75c-2.75-4.58-7.1-7.78-14-7.78-7.78,0-13.66,5-13.66,12.44,0,7.25,4,10.84,11.45,14.19l4.12,1.91c6.49,2.9,9.77,5.57,9.77,10.84,0,5.49-4.73,8.85-10.76,8.85-7.33,0-10.91-3.74-13.35-8.09l-4.58,2.44c2.75,5.5,8.16,10.53,18.09,10.53m-42.75-.61h5.49v-47h15.95v-4.88H562.12v4.88h15.95v47Zm-29.7,0h5.57V217.52h-5.57v51.89Zm-14.73.54h0.91V217.52h-5.11v35c0,2.21.38,5.72,0.38,5.88-0.23-.3-2.21-3.13-3.59-4.81l-31-36.63h-0.91v52.42h5.19v-35c0-2.06-.46-5.42-0.46-5.8,0.23,0.38,2.21,3.13,3.59,4.73Zm-71.32.08c10.53,0,18.62-6.18,18.62-18.31V217.52h-5.49v33.8c0,9.23-5.11,13.81-13.12,13.81s-13.12-4.58-13.12-13.81v-33.8H443.7V251.7c0,12.13,8,18.31,18.62,18.31M406.21,255.6h3.42v-7.75h7.27v-3.31h-7.27v-7.75h-3.42v7.75H399v3.31h7.21v7.75Zm-56.2-.08a37.74,37.74,0,0,0,4-3.74l14.73-18.69c1.6-2,3.28-4.58,3.36-4.66a39.17,39.17,0,0,0-.38,5.34v21.37h-16c-2.29,0-5.65.38-5.65,0.38m21.67,13.89h5.57v-9.61H383v-4.65h-5.8V216.3h-0.46L343.14,257v2.82h28.54v9.61Zm-58.07-4.35c-7.71,0-12.52-5.8-12.52-12.59,0-6.95,4.81-12.74,12.52-12.74,7.86,0,12.51,6,12.51,12.74s-4.81,12.59-12.51,12.59m0,5c10.76,0,18.16-7.86,18.16-17.55s-7.25-17.25-17-17.25a13.92,13.92,0,0,0-7.86,2.67,59,59,0,0,0,4-4.66l11.06-15.72h-6.18l-15.95,22.74c-2.75,4-4.35,7.86-4.35,12.36,0,9.62,7.48,17.4,18.16,17.4m-48.84-30.75c-6.1,0-9.54-4-9.54-8.85,0-4.73,3.43-8.62,9.54-8.62s9.61,3.89,9.61,8.62c0,4.88-3.43,8.85-9.61,8.85m-0.08,25.79c-7.4,0-12.44-4-12.44-10.61s5-10.76,12.44-10.76,12.44,4.27,12.44,10.76-5,10.61-12.44,10.61m0,5c10.53,0,18.09-6.1,18.09-15.34,0-6.87-4.35-11.52-10.68-13.43,4.88-1.6,7.71-5.88,7.71-11.22,0-7.25-6.18-13.12-15-13.12s-15,5.88-15,13.12c0,5.26,2.75,9.54,7.63,11.22-6.41,1.83-10.84,6.49-10.84,13.43,0,9.23,7.63,15.34,18.09,15.34M225.4,278h3l4.58-9.16a6.8,6.8,0,0,0,.91-3.05,4.15,4.15,0,0,0-4.12-4.12,4.2,4.2,0,0,0-4.12,4.12,3.87,3.87,0,0,0,2.75,3.74Zm-42.73-8.55h5.88l25.71-51.35v-0.54H177v4.88h29.15Zm-38.54-4.35c-8.16,0-15.11-6.41-15.11-21.59s6.94-21.6,15.11-21.6,15.11,6.41,15.11,21.6-6.87,21.59-15.11,21.59m0,5C155,270,165,261.62,165,243.46s-10-26.56-20.83-26.56-20.83,8.39-20.83,26.56,10,26.55,20.83,26.55m-63.87-.61h5.88l25.71-51.35v-0.54H74.61v4.88h29.15Zm-26,8.55h3l4.58-9.16a6.81,6.81,0,0,0,.92-3.05,4.15,4.15,0,0,0-4.12-4.12,4.2,4.2,0,0,0-4.12,4.12,3.87,3.87,0,0,0,2.75,3.74ZM32,269.41h5.57V217.52h-14v4.88H32v47Z" transform="translate(-14.01 -14.37)"/><path class="cls-1" d="M892.11,172c9.31,0,16.1-5.19,16.1-13.74,0-7.78-4.43-12.05-13-15.87L891,140.48c-5.8-2.67-8.24-4.73-8.24-9.31,0-4.43,3.13-7.4,8.24-7.4,4.88,0,7.63,2.44,9.61,5.65l4.43-2.75c-2.75-4.58-7.1-7.78-14-7.78-7.78,0-13.66,5-13.66,12.44,0,7.25,4,10.84,11.45,14.19l4.12,1.91c6.49,2.9,9.77,5.57,9.77,10.84,0,5.5-4.73,8.85-10.76,8.85-7.33,0-10.91-3.74-13.35-8.09L874,161.46C876.77,167,882.19,172,892.11,172m-42.75-.61h5.49v-47H870.8v-4.88H833.41v4.88h15.95v47Zm-42.53.61c10.53,0,18.62-6.18,18.62-18.31V119.49H820V153.3c0,9.23-5.11,13.81-13.12,13.81s-13.12-4.58-13.12-13.81V119.49h-5.5v34.19c0,12.13,8,18.31,18.62,18.31m-55.52-5c-12.06,0-20.91-9.23-20.91-21.6s8.85-21.6,20.91-21.6,21,9.23,21,21.6-8.85,21.6-21,21.6m0,5c14.8,0,26.71-10.91,26.71-26.55s-11.91-26.55-26.71-26.55-26.63,10.91-26.63,26.55S736.58,172,751.3,172m-52-.61H705V152.15l17.63-32.66h-5.72l-12.44,23a38.72,38.72,0,0,0-2.21,5.26,52,52,0,0,0-2.21-5.26l-12.51-23h-6.26l18.08,32.81v19.08Zm-60.38,0h5.42L649,159.71h23.81l4.73,11.67h5.8l-22-52.42h-0.91Zm12-16.4,7.94-19.92c1-2.36,2-6,2.06-6.1a52.93,52.93,0,0,0,2,6.18l8,19.84h-20Zm-40.59-8.16V124.38h9.39c8.7,0,13.12,3.74,13.12,11.22s-4.43,11.22-13.12,11.22h-9.39Zm-5.49,24.57h5.49V151.7H620c11.14,0,18.47-5.57,18.47-16.1,0-10.76-7.4-16.1-18.47-16.1H604.84v51.89Zm-33.19.54h0.91V119.49h-5.11v35c0,2.21.38,5.72,0.38,5.88-0.23-.31-2.21-3.13-3.59-4.81l-31-36.63h-0.92v52.42h5.19v-35c0-2.06-.46-5.42-0.46-5.8,0.23,0.38,2.21,3.13,3.59,4.73Zm-58.56-.54h5.57V119.49h-5.57v51.89Zm-38.18-13.8h3.42v-7.75h7.27v-3.31h-7.27v-7.75h-3.42v7.75H467.7v3.31h7.21v7.75Zm-16.34,14.34h0.91V119.49h-5.11v35c0,2.21.38,5.72,0.38,5.88-0.23-.31-2.21-3.13-3.59-4.81l-31-36.63h-0.92v52.42h5.19v-35c0-2.06-.46-5.42-0.46-5.8,0.23,0.38,2.21,3.13,3.59,4.73ZM381.82,167c-12.06,0-20.91-9.23-20.91-21.6s8.85-21.6,20.91-21.6,21,9.23,21,21.6-8.85,21.6-21,21.6m0,5c14.8,0,26.71-10.91,26.71-26.55s-11.9-26.55-26.71-26.55-26.63,10.91-26.63,26.55S367.09,172,381.82,172m-43-.61h5.57V119.49H338.8v51.89Zm-38.53,0h30V166.5h-24.5v-47h-5.49v51.89Zm-38.43,0h30V166.5H267.33v-47h-5.5v51.89Zm-19.26,0h5.57V119.49h-5.57v51.89Zm-63.52,0h5.34V137.12c0-2.29-.31-5.8-0.31-5.88a50,50,0,0,0,3.74,5.34l15.49,19.84h0.91L220,136.59c1.6-2,3.51-5.19,3.66-5.34,0,0.15-.23,3.59-0.23,5.88v34.26h5.34v-52.5h-0.84l-24,30.14-24.11-30.14h-0.76v52.5Zm-58.83,0h5.88L151.81,120v-0.54H114.58v4.88h29.15Zm-12.93.54a4.17,4.17,0,0,0,4.12-4.2,4.1,4.1,0,0,0-4.12-4.12,4.15,4.15,0,0,0-4.12,4.12,4.22,4.22,0,0,0,4.12,4.2m-45.93-.54H96.08V166.5H76.24c-2.06,0-4.73.3-4.73,0.3a35.34,35.34,0,0,0,3.89-3.51l11.52-12.21c5-5.42,8.85-11,8.85-17.47,0-8.7-6-14.73-15.26-14.73-9.46,0-15.19,6.18-16.94,14.27l5.26,1.14c1.53-6.79,5.88-10.38,11.67-10.38,6.18,0,9.69,4,9.69,9.69,0,5.26-2.82,9.69-7.55,14.65L61.36,170.85v0.53Zm-18.49-4.2V147.65c6,2.75,9.23,5.49,9.23,10.68,0,5-3.43,8.32-9.23,8.85M39,123.61V140.1c-5.49-2.44-7.63-4.73-7.63-9.31,0-4,2.9-6.79,7.63-7.17m0,48.3v8.32h3.89v-8.32c8.85-.54,14.65-5.34,14.65-13.66,0-7.94-4.65-12.21-13.66-15.95l-1-.46V123.92A11.07,11.07,0,0,1,50,129.41l4.27-2.9c-2.52-3.74-6-6.71-11.45-7.48V112.4H39v6.49c-7.33.38-13,5-13,12.05,0,7.56,4.5,11.45,12.44,14.8L39,146v21.21c-6-.61-8.85-3.81-11.22-8.16l-4.58,2.52c2.67,5.26,7.55,9.69,15.8,10.38" transform="translate(-14.01 -14.37)"/><path class="cls-1" d="M875.5,73.36h32.66V68.48H881V49.7h23.27V44.9H881V26.36h26.1V21.47H875.5V73.36Zm-32,.61c10.53,0,18.62-6.18,18.62-18.31V21.47h-5.5V55.28c0,9.23-5.11,13.81-13.12,13.81s-13.12-4.58-13.12-13.81V21.47h-5.49V55.66c0,12.13,8,18.31,18.62,18.31m-32.94-.08h0.92V21.47h-5.11v35c0,2.21.38,5.72,0.38,5.88-0.23-.31-2.21-3.13-3.59-4.81l-31-36.63h-0.91V73.36h5.19v-35c0-2.06-.46-5.42-0.46-5.8,0.23,0.38,2.21,3.13,3.59,4.73Zm-81.05-.54h32.66V68.48H735V49.7h23.27V44.9H735V26.36h26.1V21.47H729.48V73.36Zm-30.84.54h0.91l21.6-52.42h-5.57L701.39,56.65a69.77,69.77,0,0,0-2.21,7,69.53,69.53,0,0,0-2.21-7L682.69,21.47h-6Zm-61.05-.54h32.66V68.48H643.08V49.7h23.27V44.9H643.08V26.36h26.1V21.47H637.59V73.36Zm-40.12-25.1V26.36h9.77c8.4,0,13,3.51,13,11,0,7.33-4.58,10.91-13,10.91h-9.77ZM592,73.36h5.49V53h9.46c0.84,0,1.68,0,2.44-.08l11.9,20.45h6.49L615.09,52C621.81,49.93,626,45,626,37.34c0-10.76-7.63-15.87-18.47-15.87H592V73.36Zm-33.19.54h0.91V21.47h-5.11v35c0,2.21.38,5.72,0.38,5.88-0.23-.31-2.21-3.13-3.59-4.81l-31-36.63h-0.92V73.36h5.19v-35c0-2.06-.46-5.42-0.46-5.8,0.23,0.38,2.21,3.13,3.59,4.73Zm-58.56-.54h5.57V21.47h-5.57V73.36ZM462,59.55h3.42V51.81h7.27V48.49h-7.27V40.75H462v7.75h-7.21v3.31H462v7.75ZM445.71,73.89h0.91V21.47h-5.11v35c0,2.21.38,5.72,0.38,5.88-0.23-.31-2.21-3.13-3.59-4.81l-31-36.63h-0.92V73.36h5.19v-35c0-2.06-.46-5.42-0.46-5.8,0.23,0.38,2.21,3.13,3.59,4.73ZM369,69C356.89,69,348,59.78,348,47.42s8.85-21.6,20.91-21.6,21,9.23,21,21.6S381.08,69,369,69m0,5c14.8,0,26.71-10.91,26.71-26.55S383.75,20.86,369,20.86s-26.63,10.91-26.63,26.56S354.22,74,369,74m-43-.61h5.57V21.47h-5.57V73.36Zm-38.53,0h30V68.48H292.9v-47H287.4V73.36Zm-38.43,0h30V68.48H254.47v-47H249V73.36Zm-19.26,0h5.57V21.47h-5.57V73.36Zm-63.52,0h5.34V39.1c0-2.29-.31-5.8-0.31-5.88A50,50,0,0,0,175,38.56L190.46,58.4h0.91l15.72-19.84c1.6-2,3.51-5.19,3.66-5.34,0,0.15-.23,3.59-0.23,5.88V73.36h5.34V20.86H215L191.07,51,167,20.86h-0.76v52.5Zm-63.71,0h34.72V68.48H117.35c-2.06,0-4.73.3-4.73,0.3a35.2,35.2,0,0,0,3.89-3.51L128,53.06c5-5.42,8.85-11,8.85-17.47,0-8.7-6-14.73-15.26-14.73-9.46,0-15.19,6.18-16.94,14.27L110,36.27c1.53-6.79,5.88-10.38,11.67-10.38,6.18,0,9.69,4,9.69,9.69,0,5.26-2.82,9.69-7.55,14.65L102.47,72.83v0.53Zm-41.11,0H96.08V68.48H76.24c-2.06,0-4.73.3-4.73,0.3a35.33,35.33,0,0,0,3.89-3.51L86.92,53.06c5-5.42,8.85-11,8.85-17.47,0-8.7-6-14.73-15.26-14.73-9.46,0-15.19,6.18-16.94,14.27l5.26,1.14c1.53-6.79,5.88-10.38,11.67-10.38,6.18,0,9.69,4,9.69,9.69,0,5.26-2.82,9.69-7.55,14.65L61.36,72.83v0.53Zm-18.49-4.2V49.63c6,2.75,9.23,5.49,9.23,10.68,0,5-3.43,8.32-9.23,8.85M39,25.59V42.07c-5.49-2.44-7.63-4.73-7.63-9.31,0-4,2.9-6.79,7.63-7.17m0,48.3v8.32h3.89V73.89c8.85-.54,14.65-5.34,14.65-13.66,0-7.94-4.65-12.21-13.66-15.95l-1-.46V25.9A11.07,11.07,0,0,1,50,31.39l4.27-2.9c-2.52-3.74-6-6.71-11.45-7.48V14.37H39v6.49c-7.33.38-13,5-13,12.06,0,7.56,4.5,11.45,12.44,14.8L39,47.95V69.16c-6-.61-8.85-3.81-11.22-8.16l-4.58,2.52c2.67,5.26,7.55,9.69,15.8,10.38" transform="translate(-14.01 -14.37)"/><line class="cls-2" y1="88.91" x2="919.4" y2="88.91"/><line class="cls-2" y1="184.35" x2="919.4" y2="184.35"/><path class="cls-3" d="M175.08,343.85h7.58v-2h-5.29v-2.58h4.46v-2h-4.46v-2.55h5.06v-2h-7.35v11.11Zm-8.17,0h2.29v-9.1h3.17v-2h-8.62v2h3.17v9.1Zm-10.54-3.41,0.7-1.68c0.31-.77.64-1.93,0.65-2,0,0.11.36,1.24,0.67,2l0.7,1.68h-2.73Zm-3.59,3.41H155l0.62-1.5h4.31l0.62,1.5h2.4l-5.08-11.21h-0.2Zm-8.63-2v-7.09h1a3.55,3.55,0,1,1,0,7.09h-1Zm-2.29,2h3.41c3.43,0,5.85-2.27,5.85-5.55s-2.43-5.55-5.85-5.55h-3.41v11.11ZM128.92,342a3.67,3.67,0,1,1,3.4-3.66,3.41,3.41,0,0,1-3.4,3.66m0,2a5.7,5.7,0,1,0-5.75-5.7,5.62,5.62,0,0,0,5.75,5.7m-13.23-.15H118v-9.1h3.17v-2h-8.62v2h3.17v9.1Zm-13.35.15c2.17,0,3.79-1.13,3.79-3.18s-1.09-2.76-3-3.6l-0.57-.25c-1-.42-1.4-0.7-1.4-1.39a1,1,0,0,1,1.09-1,1.56,1.56,0,0,1,1.47,1l1.78-1.14a3.38,3.38,0,0,0-3.25-1.83,3.05,3.05,0,0,0-3.35,3c0,1.86,1.09,2.75,2.74,3.45l0.57,0.25c1,0.46,1.67.74,1.67,1.52A1.32,1.32,0,0,1,102.3,342a2.49,2.49,0,0,1-2.25-1.39l-1.86,1.08a4.39,4.39,0,0,0,4.16,2.33M90,338.07v-3.32h1.76c1.09,0,1.85.41,1.85,1.65s-0.72,1.67-1.85,1.67H90Zm-2.29,5.78H90V340h1.45l2.25,3.86h2.61l-2.53-4.2a3.27,3.27,0,0,0,2.17-3.25c0-2.6-1.86-3.66-4.13-3.66H87.67v11.11Zm-11,0h7.58v-2H79v-2.58h4.46v-2H79v-2.55h5.06v-2H76.71v11.11Zm-9-6.71v-2.39H69.5a1.12,1.12,0,0,1,1.31,1.19,1.19,1.19,0,0,1-1.42,1.19H67.72Zm0,4.71v-2.76h2a1.37,1.37,0,0,1,1.54,1.37,1.33,1.33,0,0,1-1.41,1.39H67.72Zm-2.29,2h4.49c2.29,0,3.61-1.37,3.61-3.18A2.55,2.55,0,0,0,71.37,338a2.27,2.27,0,0,0,1.7-2.27c0-1.68-1.14-3-3.4-3H65.44v11.11Zm-15,0h2.19v-4.17c0-.75-0.08-1.94-0.08-1.94s0.67,1,1.19,1.57L56,341.78H56.2l2.21-2.47c0.52-.59,1.19-1.57,1.19-1.57s-0.08,1.19-.08,1.94v4.17h2.2V332.63h-0.2l-5.39,6-5.47-6H50.49v11.22Zm-8.13.15c2.53,0,4.48-1.35,4.48-4.16v-7.09H44.55v7c0,1.62-.69,2.24-2.19,2.24s-2.22-.62-2.22-2.24v-7H37.85v7.09c0,2.81,1.94,4.16,4.51,4.16M34,344h0.23V332.75H32.05v4.66c0,0.77.15,2,.15,2a15.6,15.6,0,0,0-1.31-1.52l-5.6-5.26H25.06v11.21H27.2V339.2a19.49,19.49,0,0,0-.16-2,16.31,16.31,0,0,0,1.32,1.52Z" transform="translate(-14.01 -14.37)"/></svg>