<?xml version="1.0" standalone="no"?><!DOCTYPE svg PUBLIC "-//W3C//DTD SVG 1.1//EN" "http://www.w3.org/Graphics/SVG/1.1/DTD/svg11.dtd"><svg width="100%" height="100%" viewBox="0 0 71 123" version="1.1" xmlns="http://www.w3.org/2000/svg" xmlns:xlink="http://www.w3.org/1999/xlink" xml:space="preserve" style="fill-rule:evenodd;clip-rule:evenodd;stroke-linejoin:round;stroke-miterlimit:1.41421;"><g><path d="M35.333,71.399l-17.666,-10.2l17.666,-10.2l17.667,10.2l-17.667,10.2ZM17.667,0l52.999,30.599l-17.666,10.2l-53,-30.599l17.667,-10.2Z" style="fill:#272145;fill-opacity:0.4;"/><path d="M35.333,112.198l-17.666,10.2l0,-20.4l0,-20.4l17.666,10.2l0,20.4ZM53,61.199l0,20.399l-17.667,10.2l0,-20.399l17.667,-10.2l0,-20.4l17.666,-10.2l0,20.4l-17.666,10.2ZM35.333,50.999l-17.666,10.2l0,-20.4l17.666,10.2Z" style="fill:#272145;"/></g></svg>